<svg xmlns="http://www.w3.org/2000/svg" xmlns:xlink="http://www.w3.org/1999/xlink" width="300" zoomAndPan="magnify" viewBox="0 0 224.87999 225" height="300" preserveAspectRatio="xMidYMid meet" version="1.0"><defs><clipPath id="id1"><path d="M 29.613281 51.207031 L 195 51.207031 L 195 174 L 29.613281 174 Z M 29.613281 51.207031 " clip-rule="nonzero"/></clipPath></defs><g clip-path="url(#id1)"><path fill="#ff1616" d="M 74.898438 132.539062 C 76.230469 131.027344 77.28125 129.691406 78.480469 128.503906 C 82.476562 124.5625 86.335938 120.460938 90.617188 116.84375 C 95.230469 112.945312 101.867188 113.996094 106.117188 118.519531 C 107.183594 119.636719 109.050781 119.988281 110.734375 120.773438 C 111.460938 122.578125 109.738281 123.375 108.675781 124.386719 C 99.027344 133.578125 91.53125 144.425781 85.03125 155.9375 C 82.542969 160.335938 80.875 165.222656 78.988281 169.945312 C 77.507812 173.65625 77.320312 174.183594 73.285156 173.859375 C 66.085938 173.277344 59.8125 170.824219 55.277344 164.613281 C 47.378906 153.832031 38.863281 143.496094 32.941406 131.390625 C 31.984375 129.421875 31.273438 127.328125 29.953125 124.089844 C 35.859375 125.15625 40.71875 125.117188 43.839844 129.828125 C 45.75 132.714844 47.703125 135.5625 50.339844 139.503906 C 51.011719 135.359375 51.429688 132.5 51.941406 129.664062 C 55.804688 108.304688 64.375 89.03125 80.457031 74.351562 C 95.085938 60.976562 112.269531 51.734375 132.871094 51.476562 C 150.175781 51.273438 165.03125 58.078125 178.019531 69.007812 C 183.214844 73.394531 187.613281 78.75 192.230469 83.796875 C 193.425781 85.105469 194.085938 86.886719 194.988281 88.464844 C 194.636719 88.804688 194.289062 89.140625 193.9375 89.476562 C 191.8125 88.15625 189.605469 86.941406 187.601562 85.457031 C 186.347656 84.527344 185.378906 83.203125 184.328125 82.015625 C 170.875 66.753906 153.878906 62.679688 134.621094 66.835938 C 119.910156 70.003906 107.761719 77.953125 97.546875 88.84375 C 86.753906 100.328125 79.433594 113.847656 75.046875 128.988281 C 74.84375 129.664062 74.683594 130.351562 74.574219 131.039062 C 74.550781 131.351562 74.710938 131.6875 74.898438 132.539062 Z M 74.898438 132.539062 " fill-opacity="1" fill-rule="nonzero"/></g></svg>